<svg width="18" height="18" viewBox="0 0 18 18" fill="none" xmlns="http://www.w3.org/2000/svg"><path d="M10.8225 14.115C10.68 14.115 10.5375 14.0625 10.425 13.95C10.2075 13.7325 10.2075 13.3725 10.425 13.155L14.58 9L10.425 4.845C10.2075 4.6275 10.2075 4.2675 10.425 4.05C10.6425 3.8325 11.0025 3.8325 11.22 4.05L15.7725 8.6025C15.99 8.82 15.99 9.18 15.7725 9.3975L11.22 13.95C11.1075 14.0625 10.965 14.115 10.8225 14.115Z" fill="white"/><path d="M15.2475 9.5625H2.625C2.3175 9.5625 2.0625 9.3075 2.0625 9C2.0625 8.6925 2.3175 8.4375 2.625 8.4375H15.2475C15.555 8.4375 15.81 8.6925 15.81 9C15.81 9.3075 15.555 9.5625 15.2475 9.5625Z" fill="white"/></svg>