<svg width="32" height="32" viewBox="0 0 32 32" fill="none" xmlns="http://www.w3.org/2000/svg">
<path d="M26.398 14.8051L28.2362 25.335C28.2387 25.3519 28.2468 25.3963 28.2067 25.4431C28.1668 25.4906 28.1224 25.4906 28.1055 25.4906H24.0299M21.5343 11.1957H25.6562C25.7212 11.1957 25.7768 11.2419 25.7873 11.3063L26.0755 12.9588M24.5269 28.7836H28.1053C28.6051 28.7842 29.0989 28.6751 29.552 28.464C30.005 28.2529 30.4062 27.945 30.7273 27.562C31.0494 27.1798 31.2837 26.7316 31.4137 26.249C31.5437 25.7664 31.5662 25.2611 31.4796 24.7688L29.0315 10.7398C28.8938 9.94485 28.4796 9.22413 27.8619 8.70504C27.2443 8.18594 26.4631 7.90189 25.6563 7.90307H20.8834" stroke="#009EFE" stroke-miterlimit="10" stroke-linecap="round" stroke-linejoin="round"/>
<path d="M4.39373 23.5513L7.0231 8.48445C7.23185 7.29007 8.26872 6.4182 9.48184 6.4182H18.6024C19.8149 6.4182 20.8524 7.29007 21.0612 8.48445L24.4962 28.1669C24.7624 29.6938 23.5875 31.0919 22.0374 31.0919H6.04685C4.49629 31.0919 3.32123 29.6938 3.58811 28.1669L4.07623 25.37" stroke="#009EFE" stroke-miterlimit="10" stroke-linecap="round" stroke-linejoin="round"/>
<path d="M5.62036 16.5228L0.46875 11.3712L3.57062 8.26938L6.54236 11.2411" stroke="#009EFE" stroke-miterlimit="10" stroke-linecap="round" stroke-linejoin="round"/>
<path d="M5.33392 18.1618C6.35873 17.5477 7.50798 17.0118 9.5166 17.0118C14.2138 17.0118 14.2138 19.9465 18.9118 19.9465C20.783 19.9465 21.9091 19.4806 22.8829 18.9208" stroke="#009EFE" stroke-miterlimit="10" stroke-linecap="round" stroke-linejoin="round"/>
<path d="M14.5646 0.908344H13.5195C12.7121 0.908344 12.0577 1.56284 12.0577 2.37021V4.95621C12.0577 5.76352 12.7121 6.41801 13.5195 6.41801H14.5646C15.372 6.41801 16.0265 5.76352 16.0265 4.95621V2.37021C16.0265 1.56284 15.372 0.908344 14.5646 0.908344Z" stroke="#009EFE" stroke-miterlimit="10" stroke-linecap="round" stroke-linejoin="round"/>
<path d="M17.058 11.1117H11.0261C10.334 11.1117 9.77295 10.5506 9.77295 9.85857C9.77295 9.16651 10.334 8.60544 11.0261 8.60544H17.058C17.75 8.60544 18.3111 9.16651 18.3111 9.85857C18.3111 10.5506 17.75 11.1117 17.058 11.1117Z" stroke="#009EFE" stroke-miterlimit="10" stroke-linecap="round" stroke-linejoin="round"/>
<path d="M15.9881 22.8813H12.096C11.5051 22.8813 11.0261 22.4023 11.0261 21.8114V11.1118H17.058V21.8114C17.058 22.4023 16.579 22.8813 15.9881 22.8813Z" stroke="#009EFE" stroke-miterlimit="10" stroke-linecap="round" stroke-linejoin="round"/>
<path d="M21.0824 8.6057H7.00183" stroke="#009EFE" stroke-miterlimit="10" stroke-linecap="round" stroke-linejoin="round"/>
</svg>