<svg width="30" height="32" viewBox="0 0 30 32" fill="none" xmlns="http://www.w3.org/2000/svg"><path d="M28.9528 12.5227C28.8343 12.4059 28.6772 12.3404 28.5117 12.3438C25.2109 12.3714 21.9125 13.8117 19.462 16.2953C17.0378 18.7523 15.6523 22.0079 15.6327 25.2687L14.9226 25.9789V19.9802C17.1848 17.7039 18.565 14.5984 18.8113 11.2216C18.8158 11.1602 18.8081 11.0985 18.7887 11.0401C18.7694 10.9817 18.7387 10.9276 18.6984 10.8811C18.6582 10.8345 18.6091 10.7963 18.5541 10.7687C18.4991 10.741 18.4392 10.7245 18.3778 10.7201C18.1207 10.7013 17.895 10.8953 17.8762 11.1535C17.6717 13.9596 16.632 16.5615 14.9226 18.5926V6.94075C14.9226 6.81643 14.8732 6.6972 14.7853 6.60929C14.6974 6.52139 14.5782 6.472 14.4538 6.472C14.3295 6.472 14.2103 6.52139 14.1224 6.60929C14.0345 6.6972 13.9851 6.81643 13.9851 6.94075V18.4616C12.0928 16.2002 11.015 13.2143 10.994 10.0852C10.9711 6.68256 12.2067 3.41575 14.3935 1.06994C16.4 3.16263 17.6317 5.97888 17.871 9.03662C17.8912 9.29469 18.1179 9.48763 18.375 9.46737C18.4363 9.46258 18.4962 9.44574 18.5511 9.41782C18.6059 9.3899 18.6548 9.35144 18.6948 9.30464C18.7348 9.25785 18.7652 9.20363 18.7842 9.14508C18.8033 9.08654 18.8106 9.02481 18.8058 8.96344C18.5403 5.57269 17.1305 2.45438 14.8358 0.182875C14.7155 0.0638125 14.5538 0.0003125 14.3863 0C14.303 0.000308412 14.2206 0.0171699 14.1438 0.0496049C14.0671 0.0820398 13.9976 0.129401 13.9393 0.188938C11.4465 2.72375 10.0313 6.33306 10.0565 10.0914C10.0815 13.8147 11.51 17.3545 13.9852 19.8534V22.4915L11.1005 19.6068C11.0747 17.1666 10.0146 14.7386 8.17728 12.9258C6.35028 11.1232 3.91247 10.0918 1.48247 10.0918L1.43903 10.0918C1.3627 10.092 1.28716 10.1074 1.21682 10.137C1.14648 10.1667 1.08273 10.21 1.02928 10.2645C0.975501 10.3187 0.933028 10.383 0.904336 10.4537C0.875645 10.5244 0.861307 10.6002 0.862157 10.6765C0.882595 13.1208 1.94834 15.5627 3.78628 17.3761C5.59122 19.157 7.97953 20.1799 10.3767 20.2088L13.9046 23.7367C13.9295 23.7616 13.9567 23.7828 13.9852 23.8009V30.3995L13.1369 29.5513C13.1175 27.5034 12.4017 25.4361 11.1127 23.7156C11.0375 23.6177 10.9268 23.5533 10.8046 23.5365C10.6823 23.5197 10.5584 23.5518 10.4596 23.6258C10.3609 23.6998 10.2953 23.8097 10.2771 23.9318C10.2589 24.0538 10.2895 24.1781 10.3623 24.2778C11.3174 25.5526 11.9258 27.0339 12.1267 28.5411L6.51909 22.9336C6.43119 22.8457 6.31197 22.7963 6.18766 22.7963C6.06335 22.7963 5.94413 22.8457 5.85622 22.9336C5.76832 23.0215 5.71895 23.1407 5.71895 23.265C5.71895 23.3893 5.76832 23.5085 5.85622 23.5964L11.3982 29.1384C9.46597 28.8789 7.59435 27.9533 6.12285 26.5014C4.45485 24.8558 3.45153 22.6762 3.33572 20.4719C5.34841 20.5487 7.32534 21.3498 8.93797 22.7494C9.03198 22.83 9.15406 22.8702 9.27755 22.8611C9.40105 22.852 9.51592 22.7944 9.59709 22.7008C9.67826 22.6073 9.71912 22.4855 9.71076 22.3619C9.7024 22.2384 9.6455 22.1232 9.55247 22.0414C7.68403 20.4197 5.36516 19.5284 3.01747 19.5284L2.97041 19.5285C2.89328 19.5287 2.81695 19.5442 2.74586 19.5741C2.67478 19.604 2.61036 19.6478 2.55634 19.7029C2.50195 19.7576 2.45899 19.8226 2.42995 19.8941C2.40092 19.9656 2.38639 20.0422 2.38722 20.1194C2.40872 22.6912 3.53028 25.2606 5.46434 27.1689C7.36634 29.0455 9.88372 30.1223 12.4095 30.1498L14.1223 31.8627C14.1878 31.9283 14.2714 31.9729 14.3623 31.9911C14.4532 32.0092 14.5475 31.9999 14.6332 31.9644C14.7188 31.929 14.7921 31.8689 14.8436 31.7918C14.8951 31.7147 14.9226 31.624 14.9226 31.5313V27.3047L16.2125 26.0148C19.1007 26.0023 21.9725 24.9274 24.3107 22.9803C24.4062 22.9008 24.4662 22.7865 24.4775 22.6627C24.4888 22.5389 24.4505 22.4157 24.3709 22.3201C24.2913 22.2246 24.1771 22.1646 24.0533 22.1533C23.9295 22.142 23.8063 22.1803 23.7107 22.2599C21.8085 23.8439 19.5309 24.8059 17.1995 25.0278L24.76 17.4673C24.8472 17.3793 24.8961 17.2602 24.8958 17.1363C24.8955 17.0123 24.8461 16.8935 24.7585 16.8059C24.6708 16.7182 24.552 16.6688 24.4281 16.6686C24.3041 16.6683 24.1851 16.7172 24.097 16.8044L16.6218 24.2796C16.8832 21.6012 18.1237 18.9864 20.1293 16.9538C22.3267 14.7267 25.2508 13.4023 28.1971 13.2888C28.1316 15.9776 27.0803 18.6264 25.2168 20.7804C25.1354 20.8744 25.0948 20.9969 25.1038 21.1209C25.1127 21.2449 25.1706 21.3602 25.2646 21.4416C25.3586 21.5229 25.4811 21.5636 25.6051 21.5546C25.7291 21.5456 25.8444 21.4878 25.9258 21.3937C28.0123 18.9819 29.153 15.9873 29.1377 12.9614C29.1375 12.8797 29.121 12.7988 29.0893 12.7235C29.0575 12.6482 29.0111 12.58 28.9528 12.5227ZM4.44466 16.7089C2.87478 15.1599 1.92766 13.1106 1.81141 11.0363C3.88697 11.1247 5.94891 12.0443 7.51878 13.5933C8.92147 14.9772 9.82322 16.752 10.0847 18.5912L4.82041 13.3269C4.7325 13.239 4.61328 13.1896 4.48897 13.1896C4.36466 13.1896 4.24544 13.239 4.15753 13.3269C4.06964 13.4148 4.02026 13.534 4.02026 13.6583C4.02026 13.7826 4.06964 13.9018 4.15753 13.9897L9.35978 19.192C7.55878 18.9337 5.81759 18.0635 4.44466 16.7089Z" fill="#009EFE"/></svg>