<svg width="32" height="24" viewBox="0 0 32 24" fill="none" xmlns="http://www.w3.org/2000/svg">
<path d="M26.3434 5.67475H28.2503C28.7795 5.67475 29.2104 6.10569 29.2104 6.63487V8.93274C29.2104 10.9721 27.8022 12.6889 25.9073 13.1617" stroke="#009EFE" stroke-miterlimit="10" stroke-linecap="round" stroke-linejoin="round"/>
<path d="M26.3435 3.35408H28.2503C30.0596 3.35408 31.5312 4.82557 31.5312 6.63488V8.93281C31.5312 12.616 28.5343 15.613 24.851 15.613H24.5512" stroke="#009EFE" stroke-miterlimit="10" stroke-linecap="round" stroke-linejoin="round"/>
<path d="M7.59912 11.7964H9.49387C11.6917 11.7964 13.4735 13.5781 13.4735 15.776V17.6707H11.5787C9.38087 17.6707 7.59912 15.889 7.59912 13.6911V11.7964Z" stroke="#009EFE" stroke-miterlimit="10" stroke-linecap="round" stroke-linejoin="round"/>
<path d="M20.8549 15.0075C21.368 14.1675 21.6631 13.1794 21.6631 12.1225V9.48068H19.0218C15.9575 9.48068 13.4737 11.965 13.4737 15.0294V17.6707H16.1149C17.4543 17.6707 18.6824 17.1969 19.6405 16.4069" stroke="#009EFE" stroke-miterlimit="10" stroke-linecap="round" stroke-linejoin="round"/>
<path d="M6.61124 17.6707C4.06562 16.31 2.33313 13.6263 2.33313 10.5376V2.63883C2.33313 1.9482 2.8925 1.38945 3.5825 1.38945H6.58874" stroke="#009EFE" stroke-miterlimit="10" stroke-linecap="round" stroke-linejoin="round"/>
<path d="M8.46375 1.38945H25.0943C25.7837 1.38945 26.3437 1.9482 26.3437 2.63883V10.5376C26.3437 13.6263 24.6106 16.31 22.0643 17.6707" stroke="#009EFE" stroke-miterlimit="10" stroke-linecap="round" stroke-linejoin="round"/>
<path d="M26.7002 17.6708H1.97631C1.14369 17.6708 0.46875 18.3458 0.46875 19.1784C0.46875 20.011 1.14369 20.686 1.97631 20.686H26.7002C27.5327 20.686 28.2077 20.011 28.2077 19.1784C28.2077 18.3458 27.5327 17.6708 26.7002 17.6708Z" stroke="#009EFE" stroke-miterlimit="10" stroke-linecap="round" stroke-linejoin="round"/>
<path d="M25.7688 20.686C25.6256 21.7869 24.6878 22.6106 23.5775 22.6106H5.0989C3.98871 22.6106 3.0509 21.7869 2.90765 20.686" stroke="#009EFE" stroke-miterlimit="10" stroke-linecap="round" stroke-linejoin="round"/>
<path d="M2.33319 3.66645C6.33474 3.66645 6.33474 6.16644 10.3364 6.16644C14.3381 6.16644 14.3381 3.66645 18.3398 3.66645C22.3416 3.66645 22.3416 6.16644 26.3434 6.16644" stroke="#009EFE" stroke-miterlimit="10" stroke-linecap="round" stroke-linejoin="round"/>
</svg>