<svg width="47" height="47" viewBox="0 0 47 47" fill="none" xmlns="http://www.w3.org/2000/svg"><path d="M0.125 23.5C0.125 10.5906 10.5906 0.125 23.5 0.125C36.4094 0.125 46.875 10.5906 46.875 23.5C46.875 36.4094 36.4094 46.875 23.5 46.875C10.5906 46.875 0.125 36.4094 0.125 23.5ZM23.5 3.3125C18.1459 3.3125 13.0112 5.43939 9.22528 9.22528C5.43939 13.0112 3.3125 18.1459 3.3125 23.5C3.3125 28.8541 5.43939 33.9888 9.22528 37.7747C13.0112 41.5606 18.1459 43.6875 23.5 43.6875C28.8541 43.6875 33.9888 41.5606 37.7747 37.7747C41.5606 33.9888 43.6875 28.8541 43.6875 23.5C43.6875 18.1459 41.5606 13.0112 37.7747 9.22528C33.9888 5.43939 28.8541 3.3125 23.5 3.3125Z" fill="white"/><path fill-rule="evenodd" clip-rule="evenodd" d="M9.22528 9.22528C13.0112 5.43939 18.1459 3.3125 23.5 3.3125C28.8541 3.3125 33.9888 5.43939 37.7747 9.22528C41.5606 13.0112 43.6875 18.1459 43.6875 23.5C43.6875 28.8541 41.5606 33.9888 37.7747 37.7747C33.9888 41.5606 28.8541 43.6875 23.5 43.6875C18.1459 43.6875 13.0112 41.5606 9.22528 37.7747C5.43939 33.9888 3.3125 28.8541 3.3125 23.5C3.3125 18.1459 5.43939 13.0112 9.22528 9.22528ZM18.1875 15.884V31.116V31.1181C18.1878 31.3087 18.2394 31.4957 18.3368 31.6595C18.4342 31.8233 18.5739 31.9578 18.7412 32.0491C18.9085 32.1404 19.0973 32.1849 19.2878 32.1782C19.4782 32.1714 19.6633 32.1135 19.8238 32.0106L31.6727 24.3946C31.8228 24.2985 31.9462 24.1662 32.0317 24.0098C32.1172 23.8535 32.1621 23.6782 32.1621 23.5C32.1621 23.3218 32.1172 23.1465 32.0317 22.9901C31.9462 22.8338 31.8228 22.7015 31.6727 22.6054L19.8238 14.9915C19.6633 14.8886 19.4782 14.8307 19.2878 14.8239C19.0973 14.8171 18.9085 14.8617 18.7412 14.953C18.5739 15.0442 18.4342 15.1788 18.3368 15.3426C18.2394 15.5064 18.1878 15.6934 18.1875 15.884Z" fill="white"/></svg>